Coordinates
version=1
nRows=28
nColumns=33
inDegrees=yes

Units are S.I. units (second, meters, Newtons, ...)
Angles are in degrees.

endheader
time	ground_thorax_rot_x	ground_thorax_rot_y	ground_thorax_rot_z	ground_thorax_tx	ground_thorax_ty	ground_thorax_tz	clav_prot_r	clav_elev_r	scapula_abduction_r	scapula_elevation_r	scapula_upward_rot_r	scapula_winging_r	shoulder_elv_r	plane_of_elev_r	axial_rot_r	elbow_flexion_r	pro_sup_r	wrist_flex_r	wrist_dev_r	clav_prot_l	clav_elev_l	scapula_abduction_l	scapula_elevation_l	scapula_upward_rot_l	scapula_winging_l	shoulder_elv_l	plane_of_elev_l	axial_rot_l	elbow_flexion_l	pro_sup_l	wrist_flex_l	wrist_dev_l	
0.8100	5.403349	-9.476317	9.592979	-0.116843	1.035400	0.015510	2.134258	-7.355622	4.156027	-1.088116	1.228715	-0.078800	31.550934	10.972785	17.546666	52.606170	46.619739	7.637195	22.391923	1.808646	-17.508965	1.916962	2.667737	-20.120005	-7.921528	52.080092	2.515946	-3.728196	61.245052	39.995575	10.824141	-4.229692	
0.8200	5.199328	-9.600378	9.593540	-0.116988	1.035356	0.015236	2.634563	-7.642684	4.915864	-1.216312	0.921150	-0.188491	31.964099	10.856962	17.264271	52.523434	46.311285	8.178889	21.119846	1.877857	-16.960824	1.674754	2.350607	-19.613519	-7.585372	51.461468	2.877274	-3.375768	61.065464	40.487181	11.283836	-5.254851	
0.8300	4.986571	-9.725275	9.581633	-0.117162	1.035302	0.014942	3.166724	-7.941277	5.729982	-1.352073	0.607476	-0.311436	32.405487	10.751625	16.960120	52.414996	45.980302	8.735650	19.789617	1.957497	-16.390022	1.405187	2.028888	-19.066970	-7.228379	50.809808	3.263112	-3.015042	60.876786	40.996504	11.763892	-6.332680	
0.8400	4.871933	-9.758711	9.555859	-0.117183	1.035311	0.014784	3.482454	-8.107813	6.234488	-1.442757	0.468435	-0.399639	32.666031	10.761479	16.770037	52.298129	45.777615	9.008267	19.072720	2.023991	-16.095684	1.210246	1.887240	-18.730248	-7.024159	50.436118	3.498432	-2.851151	60.782456	41.257824	12.020774	-6.932523	
0.8500	4.812035	-9.744725	9.515448	-0.117137	1.035354	0.014693	3.691758	-8.211933	6.594190	-1.519879	0.430075	-0.473881	32.840658	10.848139	16.633039	52.156570	45.633405	9.121664	18.681801	2.088833	-15.946219	1.043639	1.842920	-18.496466	-6.896036	50.198830	3.675240	-2.783507	60.728437	41.358646	12.154044	-7.277154	
0.8600	4.797941	-9.687790	9.463967	-0.117035	1.035422	0.014650	3.816916	-8.266179	6.842303	-1.588425	0.477582	-0.538973	32.948907	11.004204	16.533519	51.985992	45.532202	9.098364	18.563344	2.154838	-15.915528	0.895675	1.878733	-18.346110	-6.828718	50.065873	3.813737	-2.793902	60.711687	41.305965	12.179891	-7.410176	
0.8700	4.801971	-9.616907	9.403157	-0.116924	1.035494	0.014624	3.920273	-8.305758	7.070962	-1.661688	0.567585	-0.607634	33.035727	11.213642	16.432092	51.783490	45.428485	9.000801	18.571131	2.229127	-15.926114	0.738709	1.945073	-18.218149	-6.777339	49.960011	3.965091	-2.821917	60.696364	41.111556	12.142563	-7.445371	
0.8800	4.805986	-9.545116	9.347855	-0.116825	1.035553	0.014577	4.045029	-8.353813	7.339577	-1.743947	0.661183	-0.686937	33.138771	11.448495	16.299018	51.557795	45.295450	8.887638	18.583773	2.314507	-15.920844	0.558647	2.001801	-18.075543	-6.710907	49.817317	4.158355	-2.834391	60.680610	40.812704	12.082382	-7.482069	
0.8900	4.800747	-9.482015	9.296319	-0.116767	1.035573	0.014518	4.220501	-8.397401	7.690934	-1.816938	0.744426	-0.794505	33.261263	11.726620	16.102580	51.311726	45.092463	8.743886	18.608692	2.424200	-15.871040	0.324140	2.035546	-17.884192	-6.605565	49.611680	4.403444	-2.819658	60.640592	40.295961	11.973841	-7.524158	
0.9000	4.790275	-9.417895	9.262732	-0.116719	1.035570	0.014441	4.427567	-8.434552	8.091569	-1.879241	0.817796	-0.920112	33.398949	12.031174	15.855316	51.066443	44.846047	8.584297	18.645984	2.549296	-15.794305	0.056142	2.053913	-17.666436	-6.476494	49.357686	4.681909	-2.797711	60.608156	39.619792	11.824613	-7.572422	
0.9100	4.772781	-9.358174	9.227975	-0.116689	1.035560	0.014357	4.659673	-8.472756	8.535915	-1.942218	0.891661	-1.060119	33.552842	12.375308	15.560856	50.820075	44.571279	8.413677	18.699759	2.685990	-15.701268	-0.239908	2.069959	-17.417349	-6.329844	49.075847	4.998724	-2.769540	60.576865	38.799677	11.632797	-7.620607	
0.9200	4.761868	-9.292462	9.207004	-0.116627	1.035591	0.014265	4.870535	-8.524940	8.952102	-2.024832	0.981236	-1.187198	33.714217	12.729636	15.262743	50.594203	44.333594	8.261890	18.764302	2.812137	-15.632837	-0.512408	2.100386	-17.190991	-6.202149	48.806777	5.333351	-2.758463	60.591139	37.989637	11.427041	-7.660870	
0.9300	4.750392	-9.229554	9.170005	-0.116559	1.035653	0.014177	5.072188	-8.589341	9.365445	-2.129107	1.095540	-1.311276	33.887179	13.123879	14.947138	50.376346	44.127513	8.121568	18.850530	2.931759	-15.580416	-0.774690	2.148714	-16.961107	-6.084270	48.555476	5.706095	-2.757311	60.631356	37.141939	11.190187	-7.686765	
0.9400	4.747750	-9.161705	9.144703	-0.116448	1.035771	0.014084	5.235131	-8.668033	9.726537	-2.258795	1.237991	-1.415344	34.060983	13.528544	14.644074	50.189034	43.993659	8.011972	18.951073	3.029739	-15.565163	-0.990244	2.216998	-16.770279	-5.999098	48.341233	6.098076	-2.781599	60.730624	36.360300	10.941568	-7.693423	
0.9500	4.740954	-9.102166	9.111802	-0.116336	1.035889	0.013987	5.406965	-8.736730	10.108092	-2.384371	1.392814	-1.532456	34.248219	13.984612	14.294936	50.025618	43.895909	7.912395	19.097561	3.121761	-15.539638	-1.198980	2.280500	-16.568838	-5.910820	48.126922	6.544567	-2.820931	60.848553	35.426131	10.608143	-7.665980	
0.9600	4.739932	-9.045661	9.109375	-0.116217	1.036015	0.013876	5.580941	-8.789887	10.492907	-2.496503	1.549983	-1.657583	34.446377	14.460551	13.913609	49.906411	43.831540	7.825066	19.266504	3.205379	-15.507480	-1.391267	2.332617	-16.378791	-5.825103	47.903014	7.023598	-2.878429	61.005017	34.396216	10.206377	-7.612539	
0.9700	4.733420	-9.004216	9.105979	-0.116111	1.036120	0.013750	5.792953	-8.816719	10.939423	-2.582124	1.703397	-1.813922	34.672416	14.987412	13.461505	49.828932	43.759087	7.727058	19.447947	3.292188	-15.442237	-1.598566	2.367479	-16.154729	-5.718409	47.648011	7.557297	-2.927512	61.179426	33.160101	9.695418	-7.533072	
0.9800	4.737889	-8.968703	9.128306	-0.116000	1.036263	0.013614	6.003508	-8.837877	11.387220	-2.665786	1.865424	-1.973502	34.918225	15.522188	12.995017	49.801200	43.704579	7.630518	19.588146	3.368557	-15.388472	-1.785833	2.409475	-15.940537	-5.623598	47.395627	8.105819	-2.972151	61.407656	31.952893	9.146000	-7.443696	
0.9900	4.742743	-8.956416	9.137614	-0.115898	1.036414	0.013475	6.251957	-8.840243	11.898211	-2.730981	2.025968	-2.163618	35.203509	16.110250	12.468285	49.818369	43.681602	7.518959	19.678889	3.434634	-15.325443	-1.961132	2.451809	-15.706793	-5.527747	47.143425	8.698591	-3.005323	61.669231	30.651424	8.460352	-7.308550	
1.0000	4.760249	-8.956086	9.151095	-0.115786	1.036621	0.013339	6.496585	-8.843159	12.411074	-2.803527	2.203322	-2.356347	35.516340	16.715114	11.934140	49.883537	43.702194	7.407802	19.690290	3.481011	-15.290840	-2.099281	2.516463	-15.487451	-5.457105	46.923583	9.305273	-3.027651	61.993331	29.464942	7.727551	-7.151561	
1.0100	4.780318	-8.973255	9.137867	-0.115659	1.036865	0.013212	6.747740	-8.840744	12.945978	-2.880063	2.402604	-2.561458	35.859153	17.362575	11.369271	49.992527	43.759525	7.294038	19.640174	3.511259	-15.270157	-2.211874	2.598564	-15.261785	-5.400850	46.736516	9.950767	-3.024239	62.369498	28.332161	6.931254	-6.964366	
1.0200	4.810917	-8.992374	9.127408	-0.115512	1.037166	0.013092	6.967862	-8.843652	13.446116	-2.976298	2.637505	-2.754877	36.210780	18.016027	10.811462	50.142093	43.837605	7.194092	19.546971	3.528901	-15.277411	-2.299357	2.701903	-15.051075	-5.365985	46.588776	10.615773	-2.994461	62.807056	27.368617	6.176309	-6.778951	
1.0300	4.837171	-9.023546	9.118522	-0.115388	1.037443	0.012968	7.223531	-8.807664	14.003990	-3.035638	2.870345	-2.985201	36.587284	18.716703	10.177439	50.329613	43.932277	7.089231	19.447579	3.553886	-15.249576	-2.405416	2.778918	-14.821542	-5.308852	46.433314	11.346580	-2.941824	63.261925	26.304768	5.338960	-6.542661	
1.0400	4.868147	-9.052453	9.127171	-0.115269	1.037740	0.012840	7.469489	-8.754784	14.553605	-3.087030	3.121351	-3.221193	36.975892	19.424466	9.522800	50.558572	44.034077	6.997877	19.346423	3.584678	-15.218715	-2.521603	2.851300	-14.594657	-5.247013	46.291749	12.113199	-2.863051	63.751358	25.296836	4.527484	-6.297394	
1.0500	4.902000	-9.082944	9.145219	-0.115157	1.038056	0.012707	7.710669	-8.686665	15.103209	-3.131364	3.389313	-3.465065	37.381998	20.142241	8.847788	50.828972	44.147677	6.916109	19.238714	3.621555	-15.184191	-2.649783	2.920693	-14.365443	-5.179257	46.166343	12.916719	-2.751373	64.270206	24.333754	3.726129	-6.041914	
1.0600	4.944467	-9.115050	9.182016	-0.115058	1.038401	0.012573	7.945471	-8.608140	15.648924	-3.171969	3.671104	-3.713872	37.812769	20.856662	8.169873	51.144982	44.280069	6.844641	19.115770	3.665877	-15.155378	-2.789997	2.992483	-14.142100	-5.109993	46.066995	13.741742	-2.607015	64.820586	23.455050	2.942437	-5.791730	
1.0700	4.990193	-9.155992	9.230570	-0.114988	1.038750	0.012438	8.200974	-8.508649	16.228946	-3.192100	3.951049	-3.984089	38.279616	21.583176	7.459798	51.506209	44.436908	6.770880	18.971573	3.720057	-15.112549	-2.950822	3.054329	-13.909099	-5.026956	45.979407	14.601577	-2.433132	65.382176	22.560760	2.103916	-5.527882	
1.0800	5.039112	-9.194468	9.277549	-0.114917	1.039135	0.012306	8.434965	-8.414866	16.785608	-3.226499	4.254199	-4.244772	38.774080	22.297842	6.755783	51.920022	44.603783	6.706946	18.806830	3.782091	-15.079542	-3.127883	3.128366	-13.669628	-4.942216	45.926434	15.481027	-2.220197	65.967372	21.759981	1.287080	-5.295853	
